<svg xmlns="http://www.w3.org/2000/svg" viewBox="0 0 300 37.87"><defs><style>.cls-1{fill:#0e111b;}</style></defs><g id="Layer_2" data-name="Layer 2"><g id="Layer_1-2" data-name="Layer 1"><path class="cls-1" d="M14.68,37.26H0V.54H12.51c6.22,0,10.15,4.19,10.15,9.2,0,3.72-1.63,6.56-4.33,7.78a9.25,9.25,0,0,1,7.37,9.26C25.7,33.07,21.64,37.26,14.68,37.26ZM10.75,6.9H8v8.52h2.77A4.28,4.28,0,0,0,15,11.16,4.19,4.19,0,0,0,10.75,6.9Zm2.3,15.21H8V31h5.07a4.44,4.44,0,0,0,4.4-4.46A4.39,4.39,0,0,0,13.05,22.11Z"/><path class="cls-1" d="M41.12,37.26h-8V.54H46.73c5.89,0,11.09,4.8,11.09,11.77,0,6.22-3.65,10.35-8.25,11.43L60,37.26H49.84L41.19,24.14h-.07Zm0-30.36V17.79h4.26c2.37,0,4.8-2,4.8-5.48S47.75,6.9,45.38,6.9Z"/><path class="cls-1" d="M66.07,37.26V.54h8V37.26Z"/><path class="cls-1" d="M94.68.54c10.28,0,18.06,8,18.06,18.4S105,37.26,94.68,37.26H83.86V.54Zm-.47,29.28c6.15,0,10.34-4.8,10.34-10.88S100.36,8.05,94.21,8.05H91.84V29.82Z"/><path class="cls-1" d="M127.41,19c0,6.23,4.8,11.43,10.55,11.43,3.52,0,8-1.15,10-6.69h-9.26V17.65h17.85v1.29a18.63,18.63,0,1,1-37.26,0,18.64,18.64,0,0,1,36.38-6h-8.79C145.13,9,141.48,7.57,138,7.57,132.21,7.57,127.41,12.78,127.41,19Z"/><path class="cls-1" d="M185.5,37.26h-21V.54h21V7.91H172.45v7.31H185v7.37H172.45V30H185.5Z"/><path class="cls-1" d="M195.18.54h8V30h13.05v7.37h-21Z"/><path class="cls-1" d="M222.77,37.26V.54h8V37.26Z"/><path class="cls-1" d="M261,37.26,248.53,14.34V37.26h-8V.54h8L261,23.47V.54h8V37.26Z"/><path class="cls-1" d="M300,37.26H279V.54h21V7.91H287v7.31h12.51v7.37H287V30H300Z"/></g></g></svg>